<svg xmlns="http://www.w3.org/2000/svg" id="blue_stripe" version="1.1" viewBox="0 0 230.5 145.5">
  <defs>
    <style>
      .st2{fill:#006db6;fill-rule:evenodd}
    </style>
  </defs>
  <path d="M18.8 71h-7.5L0 110.6h58.6l8.8-30.5H75l-8.7 30.5h58.6l7.5-26.2h8.6l-6.2 21.5h-7.7l-11.3 39.6h60.8l11.4-39.6h-7.5l6.1-21.5h29.8L230.5 35h-84l10-35h-48.3L86.4 23.4 78.2 0H31.6L20.4 39.3h7.5z" style="fill:#231f20"/>
  <path d="M22.4 75.7h-7.5l-8.6 30.1H55l8.6-30.1h-7.8c1.3-4.4 2.5-8.7 3.8-13.1l5 12.7h16.5l11-11.5-3.4 12h-7.5l-8.6 30.1h48.7l7.5-26.2h18.5l-8.8 31h-7.7l-8.6 30.1h50.9l8.6-30.1h-7.5l9-31h29.7l11.4-39.9h-91.2l1.5-5.2h7.1l8.5-29.8h-39.9L84.6 32.4 74.8 4.8H35.3l-8.5 29.8h7.5L22.5 75.8Z" style="fill:#fff"/>
  <path d="M141.9 115.3h-7.7l-6 20.8h41.3l6-20.9H168l14.4-50.3h9.7L189.2 75h20.1l8.8-30.7h-85.7L123.6 75h20.1l2.9-10.1h9.6l-14.4 50.3Z" class="st2"/>
  <path d="M25.9 80.3h-7.5l-6 20.9h39.1l6-20.9h-7.8L57 54.8l4.4-.2 6.3 16.1h11.4l16.1-16.8 3.9 2.2-6.9 24.3h-7.5l-6 20.9h39.1l6-20.9h-7.1l14.4-50.3h7.1c1.9-6.9 3.9-13.7 5.9-20.6h-31.7L82.9 41.2 71.6 9.5H38.8l-5.9 20.6h7.5L26 80.5Z" class="st2"/>
</svg>
